<svg width="1332" height="1328" xmlns="http://www.w3.org/2000/svg" xmlns:xlink="http://www.w3.org/1999/xlink" xml:space="preserve" overflow="hidden"><defs><linearGradient x1="2649.06" y1="1808.81" x2="2331.59" y2="379.507" gradientUnits="userSpaceOnUse" spreadMethod="reflect" id="fill0"><stop offset="0" stop-color="#F0F8FD"/><stop offset="0.38" stop-color="#F0F8FD"/><stop offset="0.72" stop-color="#58A2B9"/><stop offset="1" stop-color="#58A2B9"/></linearGradient></defs><g transform="translate(-1815 -523)"><path d="M1829 1187C1829 828.015 2119.79 537 2478.5 537 2837.21 537 3128 828.015 3128 1187 3128 1545.99 2837.21 1837 2478.5 1837 2119.79 1837 1829 1545.99 1829 1187Z" stroke="#001118" stroke-width="27.5" stroke-miterlimit="8" fill="#001118" fill-rule="evenodd"/><path d="M1970.65 1576.79C1755.41 1296.52 1808.13 894.823 2088.41 679.583 2368.68 464.344 2770.37 517.066 2985.61 797.34 3088.97 931.933 3134.64 1102.07 3112.55 1270.33Z" fill="url(#fill0)" fill-rule="evenodd"/><path d="M0 0 1234.25 325.562" stroke="#001118" stroke-width="22.9167" stroke-miterlimit="8" fill="none" fill-rule="evenodd" transform="matrix(1 0 0 -1 1883.5 1469.06)"/><path d="M2206 1198C2206 1054.41 2322.41 938 2466 938 2609.59 938 2726 1054.41 2726 1198 2726 1341.59 2609.59 1458 2466 1458 2322.41 1458 2206 1341.59 2206 1198Z" fill="#FFFFFF" fill-rule="evenodd"/><path d="M0 0 1195.28 325.562" stroke="#001118" stroke-width="45.8333" stroke-miterlimit="8" fill="none" fill-rule="evenodd" transform="matrix(1 0 0 -1 1928 1523.56)"/><path d="M2909.97 1302.09 2913.52 1352.88C2913.52 1352.88 2503.75 1456.1 2403.14 1482.24 2219.41 1529.97 2125.75 1491.52 2125.75 1491.52 2125.75 1491.52 2086.9 1425.61 2130.64 1395.87 2174.39 1366.13 2271.76 1340.06 2331.48 1300.68 2396.15 1258.06 2522.27 1152.08 2522.27 1152.08 2522.27 1152.08 2702.85 1234.53 2830.68 1104.22 2830.68 1104.22 2906.21 1158.51 2915.19 1221.51 2924.16 1284.5 2909.97 1302.09 2909.97 1302.09Z" fill="#001118" fill-rule="evenodd"/><path d="M2913.5 1352.83C2913.5 1352.83 2503.73 1456.04 2403.12 1482.18 2219.4 1529.91 2125.73 1491.47 2125.73 1491.47 2125.73 1491.47 2086.88 1425.55 2130.63 1395.81 2174.38 1366.08 2271.74 1340 2331.46 1300.62 2396.13 1258 2522.26 1152.02 2522.26 1152.02 2522.26 1152.02 2702.84 1234.47 2830.66 1104.16 2830.66 1104.16 2906.2 1158.45 2915.17 1221.45 2924.15 1284.45 2909.95 1302.03 2909.95 1302.03L2913.5 1352.83Z" stroke="#FFFFFF" stroke-width="28.1983" stroke-linecap="round" stroke-linejoin="round" stroke-miterlimit="10" fill="none" fill-rule="evenodd"/><path d="M2909.97 1302.09C2909.97 1302.09 2313.08 1458.03 2275.53 1457.06 2275.53 1457.06 2258.34 1393.81 2118.69 1426.87" stroke="#FFFFFF" stroke-width="28.1983" stroke-linecap="round" stroke-linejoin="round" stroke-miterlimit="10" fill="none" fill-rule="evenodd"/><path d="M2207 1366.03C2207 1366.03 2213.65 1387.65 2247.63 1388.36 2299.48 1389.44 2320.7 1443.28 2320.7 1443.28" stroke="#FFFFFF" stroke-width="28.1983" stroke-linecap="round" stroke-linejoin="round" stroke-miterlimit="10" fill="none" fill-rule="evenodd"/><path d="M2330.74 1306.98 2341.04 1313.11" stroke="#FFFFFF" stroke-width="28.1983" stroke-linecap="round" stroke-linejoin="round" stroke-miterlimit="10" fill="none" fill-rule="evenodd"/><path d="M2381.67 1273.38 2391.97 1279.52" stroke="#FFFFFF" stroke-width="28.1983" stroke-linecap="round" stroke-linejoin="round" stroke-miterlimit="10" fill="none" fill-rule="evenodd"/><path d="M2428.56 1238.77 2438.85 1244.9" stroke="#FFFFFF" stroke-width="28.1983" stroke-linecap="round" stroke-linejoin="round" stroke-miterlimit="10" fill="none" fill-rule="evenodd"/><path d="M2473.38 1201.77 2483.68 1207.9" stroke="#FFFFFF" stroke-width="28.1983" stroke-linecap="round" stroke-linejoin="round" stroke-miterlimit="10" fill="none" fill-rule="evenodd"/><path d="M2567.28 1173.31C2508.7 1277.9 2308.12 1364.88 2308.12 1364.88L2259.27 1342.29" stroke="#FFFFFF" stroke-width="28.1983" stroke-linecap="round" stroke-linejoin="round" stroke-miterlimit="10" fill="none" fill-rule="evenodd"/><path d="M2801.46 1136.1C2801.46 1136.1 2840.81 1185.57 2881.56 1162.42" stroke="#FFFFFF" stroke-width="28.1983" stroke-linecap="round" stroke-linejoin="round" stroke-miterlimit="10" fill="none" fill-rule="evenodd"/><path d="M2555.34 1208.97C2555.34 1208.97 2694.18 1264.7 2833.34 1165.32" stroke="#FFFFFF" stroke-width="28.1983" stroke-linecap="round" stroke-linejoin="round" stroke-miterlimit="10" fill="none" fill-rule="evenodd"/><path d="M1941.53 1149.01 1945.19 1063.3 1964.57 1064.13 2045.26 1126.82 2047.96 1063.53 2069.55 1064.45 2065.51 1159.02 2045.03 1158.14 1965.4 1096.52 1963.12 1149.93Z" fill="#001118" fill-rule="evenodd"/><text fill="#000000" fill-opacity="0" font-family="Arial,Arial_MSFontService,sans-serif" font-size="95.7152" x="1941.53" y="1147.05">Z</text><path d="M2014.54 954.955 2048.41 994.845 2065.39 967.34ZM1985.57 953.027 1999.87 929.844 2129.17 957 2114.96 980.026 2087.04 973.216 2063.48 1011.41 2081.94 1033.54 2067.87 1056.33Z" fill="#001118" fill-rule="evenodd"/><text fill="#000000" fill-opacity="0" font-family="Arial,Arial_MSFontService,sans-serif" font-size="126.488" x="1985.57" y="1040.52">A</text><path d="M2099.42 846.261 2123.68 875.807 2139.45 862.857C2144.12 859.028 2146.87 854.695 2147.72 849.858 2148.57 845.02 2147 840.175 2143.01 835.322 2138.87 830.279 2134.33 827.755 2129.39 827.75 2124.44 827.746 2119.71 829.599 2115.19 833.311ZM2066.07 846.527 2103.75 815.587C2110.07 810.391 2116.76 806.772 2123.81 804.731 2130.85 802.689 2137.8 802.682 2144.64 804.711 2151.48 806.739 2157.82 811.297 2163.64 818.387 2169.38 825.381 2172.58 832.431 2173.24 839.538 2173.9 846.645 2172.53 853.443 2169.13 859.933 2165.74 866.423 2160.88 872.266 2154.55 877.462L2136.93 891.936 2164.99 926.121 2144.94 942.588Z" fill="#001118" fill-rule="evenodd"/><text fill="#000000" fill-opacity="0" font-family="Arial,Arial_MSFontService,sans-serif" font-size="139.393" x="2066.07" y="925.163">P</text><path d="M2230.67 765.46 2237.78 817.305 2266.88 803.242ZM2207.28 748.253 2231.81 736.399 2326.22 828.821 2301.86 840.594 2281.98 819.841 2241.57 839.369 2245.24 867.957 2221.12 879.61Z" fill="#001118" fill-rule="evenodd"/><text fill="#000000" fill-opacity="0" font-family="Arial,Arial_MSFontService,sans-serif" font-size="143.211" x="2207.28" y="861.709">A</text><path d="M2296.99 708.438 2386.23 685.078 2391.7 705.982 2359.72 714.353 2385.72 813.692 2360.62 820.262 2334.62 720.924 2302.46 729.341Z" fill="#001118" fill-rule="evenodd"/><text fill="#000000" fill-opacity="0" font-family="Arial,Arial_MSFontService,sans-serif" font-size="135.184" x="2296.99" y="803.364">T</text><path d="M2489.32 693.749C2481.19 694.009 2474.72 696.125 2469.89 700.099 2465.06 704.072 2461.62 709.295 2459.58 715.766 2457.54 722.237 2456.64 729.349 2456.89 737.102 2457.13 744.731 2458.48 751.71 2460.93 758.037 2463.38 764.364 2467.15 769.356 2472.22 773.012 2477.3 776.669 2483.9 778.367 2492.02 778.107 2500.08 777.849 2506.51 775.733 2511.31 771.761 2516.11 767.788 2519.54 762.566 2521.62 756.094 2523.69 749.622 2524.6 742.571 2524.36 734.941 2524.11 727.188 2522.74 720.149 2520.26 713.823 2517.78 707.496 2514.02 702.505 2508.97 698.847 2503.93 695.19 2497.38 693.491 2489.32 693.749ZM2488.62 672.152C2501.61 671.736 2512.67 674.015 2521.83 678.988 2530.98 683.961 2538.05 691.157 2543.03 700.575 2548.01 709.993 2550.71 721.163 2551.12 734.084 2551.54 747.006 2549.56 758.294 2545.19 767.951 2540.81 777.607 2534.22 785.209 2525.41 790.758 2516.59 796.306 2505.69 799.288 2492.71 799.704 2479.73 800.119 2468.64 797.841 2459.46 792.869 2450.28 787.897 2443.2 780.732 2438.22 771.376 2433.23 762.019 2430.54 750.88 2430.12 737.959 2429.71 725.037 2431.69 713.718 2436.06 704 2440.43 694.282 2447.04 686.649 2455.88 681.099 2464.73 675.55 2475.64 672.567 2488.62 672.152Z" fill="#001118" fill-rule="evenodd"/><text fill="#000000" fill-opacity="0" font-family="Arial,Arial_MSFontService,sans-serif" font-size="127.648" x="2430.07" y="783.796">O</text><path d="M2635.87 706.302 2625.9 743.207 2645.6 748.533C2651.42 750.107 2656.55 749.835 2660.98 747.717 2665.41 745.599 2668.44 741.509 2670.08 735.447 2671.79 729.148 2671.21 723.985 2668.34 719.958 2665.47 715.931 2661.22 713.154 2655.57 711.628ZM2616.3 679.294 2663.36 692.019C2671.27 694.156 2678.09 697.501 2683.85 702.053 2689.6 706.606 2693.64 712.257 2695.96 719.006 2698.28 725.756 2698.24 733.558 2695.85 742.412 2693.48 751.148 2689.6 757.847 2684.19 762.508 2678.79 767.168 2672.46 770.001 2665.2 771.005 2657.95 772.009 2650.37 771.442 2642.47 769.305L2620.45 763.353 2608.9 806.052 2583.86 799.28Z" fill="#001118" fill-rule="evenodd"/><text fill="#000000" fill-opacity="0" font-family="Arial,Arial_MSFontService,sans-serif" font-size="126.758" x="2583.86" y="790.207">P</text><path d="M2763.76 731.261 2785.87 744.846 2720.8 850.745 2698.69 837.161Z" fill="#001118" fill-rule="evenodd"/><text fill="#000000" fill-opacity="0" font-family="Arial,Arial_MSFontService,sans-serif" font-size="119.484" x="2698.69" y="835.81">I</text><path d="M2858.02 846.049 2807.84 860.87 2826.11 887.525ZM2871.52 820.335 2886.92 842.801 2809.75 950.031 2794.45 927.718 2811.97 904.948 2786.59 867.936 2758.88 875.855 2743.74 853.77Z" fill="#001118" fill-rule="evenodd"/><text fill="#000000" fill-opacity="0" font-family="Arial,Arial_MSFontService,sans-serif" font-size="129.696" x="2743.74" y="933.819">A</text></g></svg>